# xmcd
#
# Track frame offsets:
# 150
# 20791
# 51028
# 89393
# 119913
# 145564
# 167704
# 193849
# 218558
# 239145
# 263343
# 284425
# 309645
#
# Disc length: 4322 seconds
#
#
# Revision: 0
# Processed by: cddbd v1.5.1PL0 Copyright (c) Steve Scherf et al.
# Submitted via: FreeRIP 2.942 
#
DISCID=c310e00d
DTITLE=George Michael - Freeek! CD1
DYEAR=1900
DGENRE=
TTITLE0=Freeek!
TTITLE1=The scumfrogs mix freek!
TTITLE2=Moogymen mix freek!
TTITLE3=Jesus to a child
TTITLE4=Father figure
TTITLE5=Careless whisper
TTITLE6=Don't let the sun go down on me
TTITLE7=You have been loved
TTITLE8=Kissing a fool
TTITLE9=I can't make you love me
TTITLE10=Heal the pain
TTITLE11=A moment with you
TTITLE12=Desafinado
EXTD=
EXTT0=
EXTT1=
EXTT2=
EXTT3=
EXTT4=
EXTT5=
EXTT6=
EXTT7=
EXTT8=
EXTT9=
EXTT10=
EXTT11=
EXTT12=
PLAYORDER=
